<svg xmlns="http://www.w3.org/2000/svg" xmlns:xlink="http://www.w3.org/1999/xlink" version="1.1" style="background: #ffffff" viewBox="0 0 1447 1679"><style id="v-3" type="text/css">        .joint-element .scalable * {            vector-effect: non-scaling-stroke;        }    </style><defs joint-selector="defs"><marker id="v-21252848929" orient="auto" overflow="visible" markerUnits="userSpaceOnUse"><path id="v-63" stroke="#444444" fill="#444444" transform="rotate(180)" d="M 20 -10 0 0 20 10 Z"></path></marker></defs><g joint-selector="layers"  transform="matrix(1,0,0,1,0,0)"><g  style="pointer-events: none;"></g><g ></g><g  style="user-select: none;"><!--z-index:1--><!--z-index:2--><!--z-index:3--><!--z-index:4--><!--z-index:5--><!--z-index:6--><g   id="j_102"  transform="translate(20,1635)"><g id="v-1062"><text  id="v-1063" font-size="24px" xml:space="preserve" y="0.8em" font-weight="normal" text-anchor="start" fill="#444444" pointer-events="none" display="block" font-family="Tahoma, Verdana, Helvetica, Arial"><tspan dy="0" >lunes, 8 de junio de 2026, 1:40 hora estándar de Chile</tspan></text></g></g><!--z-index:7--><g   id="j_101"  transform="translate(20,1589)"><g id="v-1060"><text  id="v-1061" font-size="36px" xml:space="preserve" y="0.8em" font-weight="normal" text-anchor="start" fill="#444444" pointer-events="none" display="block" font-family="Tahoma, Verdana, Helvetica, Arial"><tspan dy="0" >Container View: Sistema web autoadaptativo de gestion de contenidos</tspan></text></g></g><!--z-index:8--><g   id="j_103"  transform="translate(326,160)" style=""><g  id="v-1067" style="opacity: 1;"><rect  x="0" y="160" width="400" height="240" rx="70" id="v-1069" stroke-width="2" pointer-events="visiblePainted" fill="#2a6f97" stroke="#266488" stroke-dasharray="" style="fill: rgb(42, 111, 151); stroke: rgb(38, 100, 136);"></rect><circle  cx="200" cy="88.88888888888889" r="88.88888888888889" id="v-1068" stroke-width="2" pointer-events="visiblePainted" fill="#2a6f97" stroke="#266488" stroke-dasharray="" style="fill: rgb(42, 111, 151); stroke: rgb(38, 100, 136);"></circle><line  x1="80" y1="266.6666666666667" x2="80" y2="400" id="v-1075" stroke="#266488" stroke-width="1" stroke-dasharray="" style="stroke: rgb(38, 100, 136);"></line><line  x1="320" y1="266.6666666666667" x2="320" y2="400" id="v-1076" stroke="#266488" stroke-width="1" stroke-dasharray="" style="stroke: rgb(38, 100, 136);"></line><text  id="v-1070" font-size="33.599999999999994px" xml:space="preserve" y="188.10000000000002" font-weight="bold" text-anchor="middle" pointer-events="visible" font-family="Tahoma, Verdana, Helvetica, Arial" fill="#ffffff" dominant-baseline="hanging" transform="matrix(1,0,0,1,200,0)" style="fill: rgb(255, 255, 255);"><tspan dy="0" >Usuario final</tspan></text><text  id="v-1071" font-size="16.799999999999997px" xml:space="preserve" y="229.70000000000002" text-anchor="middle" font-family="Tahoma, Verdana, Helvetica, Arial" fill="#ffffff" dominant-baseline="hanging" transform="matrix(1,0,0,1,200,0)" style="display: block; fill: rgb(255, 255, 255);"><tspan dy="0" >[Person]</tspan></text><text  id="v-1072" font-size="24px" xml:space="preserve" y="261.5" text-anchor="middle" font-family="Tahoma, Verdana, Helvetica, Arial" fill="#ffffff" dominant-baseline="hanging" transform="matrix(1,0,0,1,200,0)" style="display: block; fill: rgb(255, 255, 255);"><tspan dy="0" >Interactua con el sistema a</tspan><tspan dy="1.2em" x="0" >traves de un navegador web</tspan><tspan dy="1.2em" x="0" >para consultar contenido</tspan><tspan dy="1.2em" x="0" >educativo adaptativo.</tspan></text><g  id="v-1073" font-weight="normal" text-anchor="middle" color="#ffffff" transform="matrix(1,0,0,1,197.5,368)" style="fill: rgb(255, 255, 255);" display="none"><g ></g><g ></g><g ></g><g ></g></g><image  id="v-1074"></image></g></g><!--z-index:9--><g   id="j_104"  transform="translate(301,610)" style=""><g  id="v-1083" style="opacity: 1;"><rect  id="v-1084" rx="1" ry="1" stroke-width="2" pointer-events="visiblePainted" fill="#0b3954" stroke="#0a334c" stroke-dasharray="" width="450" height="300" style="fill: rgb(11, 57, 84); stroke: rgb(10, 51, 76);"></rect><text  id="v-1085" font-size="33.599999999999994px" xml:space="preserve" y="72.5" font-weight="bold" text-anchor="middle" pointer-events="visible" font-family="Tahoma, Verdana, Helvetica, Arial" fill="#ffffff" dominant-baseline="hanging" transform="matrix(1,0,0,1,225,0)" style="fill: rgb(255, 255, 255);"><tspan dy="0" >Herramienta de carga</tspan></text><text  id="v-1086" font-size="16.799999999999997px" xml:space="preserve" y="114.1" text-anchor="middle" font-family="Tahoma, Verdana, Helvetica, Arial" fill="#ffffff" dominant-baseline="hanging" transform="matrix(1,0,0,1,225,0)" style="display: block; fill: rgb(255, 255, 255);"><tspan dy="0" >[Software System]</tspan></text><text  id="v-1087" font-size="24px" xml:space="preserve" y="145.89999999999998" text-anchor="middle" font-family="Tahoma, Verdana, Helvetica, Arial" fill="#ffffff" dominant-baseline="hanging" transform="matrix(1,0,0,1,225,0)" style="display: block; fill: rgb(255, 255, 255);"><tspan dy="0" >Emite solicitudes HTTP de prueba</tspan><tspan dy="1.2em" x="0" >para observar la respuesta</tspan><tspan dy="1.2em" x="0" >autoadaptativa del sistema.</tspan></text><g  id="v-1088" color="#ffffff" transform="matrix(1,0,0,1,222.5,268)" style="fill: rgb(255, 255, 255);" display="none"><g ></g><g ></g><g ></g><g ></g></g><image  id="v-1089"></image></g></g><!--z-index:10--><g   id="j_106"  transform="translate(251,960)" style="; opacity: 1;"><g id="v-1100"><rect  id="v-1101" width="943.3876953125" height="479" rx="0" ry="0" stroke-width="2" pointer-events="none" stroke="#0a334c" fill="#ffffff" opacity="1" stroke-dasharray=""></rect><text  id="v-1102" font-size="33.599999999999994px" xml:space="preserve" y="440" font-weight="bold" text-anchor="start" pointer-events="visible" font-family="Tahoma, Verdana, Helvetica, Arial" fill="#0a334c" transform="matrix(1,0,0,1,15,0)"><tspan dy="0" >Sistema web autoadaptativo de gestion de contenidos</tspan></text><text  id="v-1103" font-size="16.799999999999997px" xml:space="preserve" y="464" font-weight="normal" text-anchor="start" pointer-events="visible" font-family="Tahoma, Verdana, Helvetica, Arial" fill="#0a334c" transform="matrix(1,0,0,1,15,0)"><tspan dy="0" >[Software System]</tspan></text><image  id="v-1104" pointer-events="visible"></image></g></g><!--z-index:11--><g   id="j_105"  transform="translate(301,1010)" style=""><g  id="v-1093" style="opacity: 1;"><rect  id="v-1094" rx="1" ry="1" stroke-width="2" pointer-events="visiblePainted" fill="#d9eaf4" stroke="#c3d3dc" stroke-dasharray="" width="450" height="300" style="fill: rgb(217, 234, 244); stroke: rgb(195, 211, 220);"></rect><text  id="v-1095" font-size="33.599999999999994px" xml:space="preserve" y="58.10000000000001" font-weight="bold" text-anchor="middle" pointer-events="visible" font-family="Tahoma, Verdana, Helvetica, Arial" fill="#102a43" dominant-baseline="hanging" transform="matrix(1,0,0,1,225,0)" style="fill: rgb(16, 42, 67);"><tspan dy="0" >Aplicacion web</tspan></text><text  id="v-1096" font-size="16.799999999999997px" xml:space="preserve" y="99.7" text-anchor="middle" font-family="Tahoma, Verdana, Helvetica, Arial" fill="#102a43" dominant-baseline="hanging" transform="matrix(1,0,0,1,225,0)" style="display: block; fill: rgb(16, 42, 67);"><tspan dy="0" >[Container: Java 17, Javalin]</tspan></text><text  id="v-1097" font-size="24px" xml:space="preserve" y="131.5" text-anchor="middle" font-family="Tahoma, Verdana, Helvetica, Arial" fill="#102a43" dominant-baseline="hanging" transform="matrix(1,0,0,1,225,0)" style="display: block; fill: rgb(16, 42, 67);"><tspan dy="0" >Contenedor ejecutable en Java 17 y</tspan><tspan dy="1.2em" x="0" >Javalin que concentra la exposicion</tspan><tspan dy="1.2em" x="0" >HTTP, la orquestacion MAPE-K y el</tspan><tspan dy="1.2em" x="0" >renderizado adaptativo.</tspan></text><g  id="v-1098" color="#102a43" transform="matrix(1,0,0,1,210,268)" style="fill: rgb(16, 42, 67);" display="none"><g  transform="translate(5 0)"><svg xmlns="http://www.w3.org/2000/svg" width="20" height="20" fill="currentColor" viewBox="0 0 16 16"><path fill-rule="evenodd" d="M6.5 12a5.5 5.5 0 1 0 0-11 5.5 5.5 0 0 0 0 11zM13 6.5a6.5 6.5 0 1 1-13 0 6.5 6.5 0 0 1 13 0z"></path><path d="M10.344 11.742c.03.04.062.078.098.115l3.85 3.85a1 1 0 0 0 1.415-1.414l-3.85-3.85a1.007 1.007 0 0 0-.115-.1 6.538 6.538 0 0 1-1.398 1.4z"></path><path fill-rule="evenodd" d="M6.5 3a.5.5 0 0 1 .5.5V6h2.5a.5.5 0 0 1 0 1H7v2.5a.5.5 0 0 1-1 0V7H3.5a.5.5 0 0 1 0-1H6V3.5a.5.5 0 0 1 .5-.5z"></path></svg></g><g ></g><g ></g><g ></g></g><image  id="v-1099"></image></g></g><!--z-index:12--><!--z-index:13--><!--z-index:14--><!--z-index:15--><!--z-index:16--><!--z-index:17--><!--z-index:18--><!--z-index:19--><!--z-index:20--><!--z-index:21--><!--z-index:22--><!--z-index:23--><!--z-index:24--><!--z-index:25--><!--z-index:26--><!--z-index:27--><!--z-index:28--><!--z-index:29--><!--z-index:30--><!--z-index:31--><!--z-index:32--><!--z-index:33--><!--z-index:34--><!--z-index:35--><!--z-index:36--><!--z-index:37--><!--z-index:38--><!--z-index:39--><!--z-index:40--><!--z-index:41--><!--z-index:42--><!--z-index:43--><!--z-index:44--><!--z-index:45--><!--z-index:46--><!--z-index:47--><!--z-index:48--><!--z-index:49--><!--z-index:50--><!--z-index:51--><!--z-index:52--><!--z-index:53--><!--z-index:54--><!--z-index:55--><!--z-index:56--><!--z-index:57--><!--z-index:58--><!--z-index:59--><!--z-index:60--><!--z-index:61--><!--z-index:62--><!--z-index:63--><!--z-index:64--><!--z-index:65--><!--z-index:66--></g><g  style="user-select: none;"></g><g ></g><g  display="none"></g></g></svg>